<svg xmlns="http://www.w3.org/2000/svg" xmlns:xlink="http://www.w3.org/1999/xlink" width="500" zoomAndPan="magnify" viewBox="0 0 375 374.999991" height="500" preserveAspectRatio="xMidYMid meet" version="1.0"><defs><g/></defs><rect x="-37.5" width="450" fill="#ffffff" y="-37.499999" height="449.999989" fill-opacity="1"/><rect x="-37.5" width="450" fill="#ffffff" y="-37.499999" height="449.999989" fill-opacity="1"/><rect x="-37.5" width="450" fill="#ffffff" y="-37.499999" height="449.999989" fill-opacity="1"/><rect x="-37.5" width="450" fill="#ffffff" y="-37.499999" height="449.999989" fill-opacity="1"/><g fill="#ff00ff" fill-opacity="1"><g transform="translate(9.685096, 48.961095)"><g><path d="M 26.796875 -4.40625 L 1.78125 -15.515625 L 1.78125 -19.78125 L 26.796875 -32.296875 L 26.796875 -24.953125 L 11.453125 -17.9375 L 26.796875 -11.703125 Z M 26.796875 -4.40625 "/></g></g></g><g fill="#ff00ff" fill-opacity="1"><g transform="translate(38.368644, 48.961095)"><g><path d="M 24.234375 -36.1875 L 35.171875 -36.1875 L 23.3125 0 L 11.8125 0 L 0 -36.1875 L 10.984375 -36.1875 L 15.921875 -17.84375 C 16.941406 -13.769531 17.5 -10.929688 17.59375 -9.328125 C 17.707031 -10.484375 17.9375 -11.925781 18.28125 -13.65625 C 18.632812 -15.394531 18.941406 -16.757812 19.203125 -17.75 Z M 24.234375 -36.1875 "/></g></g></g><g fill="#ff00ff" fill-opacity="1"><g transform="translate(73.536307, 48.961095)"><g><path d="M 13.0625 0 L 3.390625 0 L 3.390625 -28.046875 L 13.0625 -28.046875 Z M 3.140625 -35.015625 C 3.140625 -36.472656 3.539062 -37.554688 4.34375 -38.265625 C 5.15625 -38.972656 6.460938 -39.328125 8.265625 -39.328125 C 10.066406 -39.328125 11.378906 -38.960938 12.203125 -38.234375 C 13.023438 -37.515625 13.4375 -36.441406 13.4375 -35.015625 C 13.4375 -32.179688 11.710938 -30.765625 8.265625 -30.765625 C 4.847656 -30.765625 3.140625 -32.179688 3.140625 -35.015625 Z M 3.140625 -35.015625 "/></g></g></g><g fill="#00ffff" fill-opacity="1"><g transform="translate(7.784017, 48.961095)"><g><path d="M 26.796875 -4.40625 L 1.78125 -15.515625 L 1.78125 -19.78125 L 26.796875 -32.296875 L 26.796875 -24.953125 L 11.453125 -17.9375 L 26.796875 -11.703125 Z M 26.796875 -4.40625 "/></g></g></g><g fill="#00ffff" fill-opacity="1"><g transform="translate(36.467564, 48.961095)"><g><path d="M 24.234375 -36.1875 L 35.171875 -36.1875 L 23.3125 0 L 11.8125 0 L 0 -36.1875 L 10.984375 -36.1875 L 15.921875 -17.84375 C 16.941406 -13.769531 17.5 -10.929688 17.59375 -9.328125 C 17.707031 -10.484375 17.9375 -11.925781 18.28125 -13.65625 C 18.632812 -15.394531 18.941406 -16.757812 19.203125 -17.75 Z M 24.234375 -36.1875 "/></g></g></g><g fill="#00ffff" fill-opacity="1"><g transform="translate(71.635227, 48.961095)"><g><path d="M 13.0625 0 L 3.390625 0 L 3.390625 -28.046875 L 13.0625 -28.046875 Z M 3.140625 -35.015625 C 3.140625 -36.472656 3.539062 -37.554688 4.34375 -38.265625 C 5.15625 -38.972656 6.460938 -39.328125 8.265625 -39.328125 C 10.066406 -39.328125 11.378906 -38.960938 12.203125 -38.234375 C 13.023438 -37.515625 13.4375 -36.441406 13.4375 -35.015625 C 13.4375 -32.179688 11.710938 -30.765625 8.265625 -30.765625 C 4.847656 -30.765625 3.140625 -32.179688 3.140625 -35.015625 Z M 3.140625 -35.015625 "/></g></g></g><g fill="#ff1616" fill-opacity="1"><g transform="translate(8.734557, 48.961095)"><g><path d="M 26.796875 -4.40625 L 1.78125 -15.515625 L 1.78125 -19.78125 L 26.796875 -32.296875 L 26.796875 -24.953125 L 11.453125 -17.9375 L 26.796875 -11.703125 Z M 26.796875 -4.40625 "/></g></g></g><g fill="#ff1616" fill-opacity="1"><g transform="translate(37.418104, 48.961095)"><g><path d="M 24.234375 -36.1875 L 35.171875 -36.1875 L 23.3125 0 L 11.8125 0 L 0 -36.1875 L 10.984375 -36.1875 L 15.921875 -17.84375 C 16.941406 -13.769531 17.5 -10.929688 17.59375 -9.328125 C 17.707031 -10.484375 17.9375 -11.925781 18.28125 -13.65625 C 18.632812 -15.394531 18.941406 -16.757812 19.203125 -17.75 Z M 24.234375 -36.1875 "/></g></g></g><g fill="#ff1616" fill-opacity="1"><g transform="translate(72.585767, 48.961095)"><g><path d="M 13.0625 0 L 3.390625 0 L 3.390625 -28.046875 L 13.0625 -28.046875 Z M 3.140625 -35.015625 C 3.140625 -36.472656 3.539062 -37.554688 4.34375 -38.265625 C 5.15625 -38.972656 6.460938 -39.328125 8.265625 -39.328125 C 10.066406 -39.328125 11.378906 -38.960938 12.203125 -38.234375 C 13.023438 -37.515625 13.4375 -36.441406 13.4375 -35.015625 C 13.4375 -32.179688 11.710938 -30.765625 8.265625 -30.765625 C 4.847656 -30.765625 3.140625 -32.179688 3.140625 -35.015625 Z M 3.140625 -35.015625 "/></g></g></g><g fill="#ff00ff" fill-opacity="1"><g transform="translate(90.011898, 48.961095)"><g><path d="M 13.015625 0 L 3.34375 0 L 3.34375 -38.515625 L 13.015625 -38.515625 Z M 13.015625 0 "/></g></g></g><g fill="#ff00ff" fill-opacity="1"><g transform="translate(106.395426, 48.961095)"><g><path d="M 13.015625 0 L 3.34375 0 L 3.34375 -38.515625 L 13.015625 -38.515625 Z M 13.015625 0 "/></g></g></g><g fill="#ff00ff" fill-opacity="1"><g transform="translate(122.778953, 48.961095)"><g><path d="M 21.625 0 L 19.78125 -3.71875 L 19.578125 -3.71875 C 18.273438 -2.09375 16.945312 -0.984375 15.59375 -0.390625 C 14.238281 0.203125 12.488281 0.5 10.34375 0.5 C 7.707031 0.5 5.628906 -0.289062 4.109375 -1.875 C 2.585938 -3.457031 1.828125 -5.6875 1.828125 -8.5625 C 1.828125 -11.550781 2.863281 -13.773438 4.9375 -15.234375 C 7.019531 -16.691406 10.035156 -17.515625 13.984375 -17.703125 L 18.65625 -17.84375 L 18.65625 -18.234375 C 18.65625 -20.546875 17.519531 -21.703125 15.25 -21.703125 C 13.195312 -21.703125 10.597656 -21.007812 7.453125 -19.625 L 4.65625 -26.015625 C 7.914062 -27.691406 12.039062 -28.53125 17.03125 -28.53125 C 20.625 -28.53125 23.40625 -27.640625 25.375 -25.859375 C 27.351562 -24.078125 28.34375 -21.585938 28.34375 -18.390625 L 28.34375 0 Z M 14.453125 -6.34375 C 15.628906 -6.34375 16.628906 -6.710938 17.453125 -7.453125 C 18.285156 -8.191406 18.703125 -9.15625 18.703125 -10.34375 L 18.703125 -12.515625 L 16.484375 -12.421875 C 13.296875 -12.304688 11.703125 -11.132812 11.703125 -8.90625 C 11.703125 -7.195312 12.617188 -6.34375 14.453125 -6.34375 Z M 14.453125 -6.34375 "/></g></g></g><g fill="#00ffff" fill-opacity="1"><g transform="translate(88.110818, 48.961095)"><g><path d="M 13.015625 0 L 3.34375 0 L 3.34375 -38.515625 L 13.015625 -38.515625 Z M 13.015625 0 "/></g></g></g><g fill="#00ffff" fill-opacity="1"><g transform="translate(104.494346, 48.961095)"><g><path d="M 13.015625 0 L 3.34375 0 L 3.34375 -38.515625 L 13.015625 -38.515625 Z M 13.015625 0 "/></g></g></g><g fill="#00ffff" fill-opacity="1"><g transform="translate(120.877874, 48.961095)"><g><path d="M 21.625 0 L 19.78125 -3.71875 L 19.578125 -3.71875 C 18.273438 -2.09375 16.945312 -0.984375 15.59375 -0.390625 C 14.238281 0.203125 12.488281 0.5 10.34375 0.5 C 7.707031 0.5 5.628906 -0.289062 4.109375 -1.875 C 2.585938 -3.457031 1.828125 -5.6875 1.828125 -8.5625 C 1.828125 -11.550781 2.863281 -13.773438 4.9375 -15.234375 C 7.019531 -16.691406 10.035156 -17.515625 13.984375 -17.703125 L 18.65625 -17.84375 L 18.65625 -18.234375 C 18.65625 -20.546875 17.519531 -21.703125 15.25 -21.703125 C 13.195312 -21.703125 10.597656 -21.007812 7.453125 -19.625 L 4.65625 -26.015625 C 7.914062 -27.691406 12.039062 -28.53125 17.03125 -28.53125 C 20.625 -28.53125 23.40625 -27.640625 25.375 -25.859375 C 27.351562 -24.078125 28.34375 -21.585938 28.34375 -18.390625 L 28.34375 0 Z M 14.453125 -6.34375 C 15.628906 -6.34375 16.628906 -6.710938 17.453125 -7.453125 C 18.285156 -8.191406 18.703125 -9.15625 18.703125 -10.34375 L 18.703125 -12.515625 L 16.484375 -12.421875 C 13.296875 -12.304688 11.703125 -11.132812 11.703125 -8.90625 C 11.703125 -7.195312 12.617188 -6.34375 14.453125 -6.34375 Z M 14.453125 -6.34375 "/></g></g></g><g fill="#ffde59" fill-opacity="1"><g transform="translate(89.061358, 48.961095)"><g><path d="M 13.015625 0 L 3.34375 0 L 3.34375 -38.515625 L 13.015625 -38.515625 Z M 13.015625 0 "/></g></g></g><g fill="#ffde59" fill-opacity="1"><g transform="translate(105.444886, 48.961095)"><g><path d="M 13.015625 0 L 3.34375 0 L 3.34375 -38.515625 L 13.015625 -38.515625 Z M 13.015625 0 "/></g></g></g><g fill="#ffde59" fill-opacity="1"><g transform="translate(121.828414, 48.961095)"><g><path d="M 21.625 0 L 19.78125 -3.71875 L 19.578125 -3.71875 C 18.273438 -2.09375 16.945312 -0.984375 15.59375 -0.390625 C 14.238281 0.203125 12.488281 0.5 10.34375 0.5 C 7.707031 0.5 5.628906 -0.289062 4.109375 -1.875 C 2.585938 -3.457031 1.828125 -5.6875 1.828125 -8.5625 C 1.828125 -11.550781 2.863281 -13.773438 4.9375 -15.234375 C 7.019531 -16.691406 10.035156 -17.515625 13.984375 -17.703125 L 18.65625 -17.84375 L 18.65625 -18.234375 C 18.65625 -20.546875 17.519531 -21.703125 15.25 -21.703125 C 13.195312 -21.703125 10.597656 -21.007812 7.453125 -19.625 L 4.65625 -26.015625 C 7.914062 -27.691406 12.039062 -28.53125 17.03125 -28.53125 C 20.625 -28.53125 23.40625 -27.640625 25.375 -25.859375 C 27.351562 -24.078125 28.34375 -21.585938 28.34375 -18.390625 L 28.34375 0 Z M 14.453125 -6.34375 C 15.628906 -6.34375 16.628906 -6.710938 17.453125 -7.453125 C 18.285156 -8.191406 18.703125 -9.15625 18.703125 -10.34375 L 18.703125 -12.515625 L 16.484375 -12.421875 C 13.296875 -12.304688 11.703125 -11.132812 11.703125 -8.90625 C 11.703125 -7.195312 12.617188 -6.34375 14.453125 -6.34375 Z M 14.453125 -6.34375 "/></g></g></g><g fill="#ff00ff" fill-opacity="1"><g transform="translate(154.345255, 48.961095)"><g><path d="M 21.03125 0 L 21.03125 -15.296875 C 21.03125 -17.160156 20.757812 -18.566406 20.21875 -19.515625 C 19.6875 -20.460938 18.828125 -20.9375 17.640625 -20.9375 C 16.015625 -20.9375 14.835938 -20.285156 14.109375 -18.984375 C 13.378906 -17.679688 13.015625 -15.445312 13.015625 -12.28125 L 13.015625 0 L 3.34375 0 L 3.34375 -28.046875 L 10.640625 -28.046875 L 11.859375 -24.578125 L 12.421875 -24.578125 C 13.242188 -25.898438 14.382812 -26.890625 15.84375 -27.546875 C 17.3125 -28.203125 18.992188 -28.53125 20.890625 -28.53125 C 23.992188 -28.53125 26.40625 -27.628906 28.125 -25.828125 C 29.851562 -24.035156 30.71875 -21.503906 30.71875 -18.234375 L 30.71875 0 Z M 21.03125 0 "/></g></g></g><g fill="#ff00ff" fill-opacity="1"><g transform="translate(188.30024, 48.961095)"><g><path d="M 23.3125 0 L 22.09375 -3.484375 L 21.53125 -3.484375 C 20.71875 -2.203125 19.585938 -1.21875 18.140625 -0.53125 C 16.703125 0.15625 15.007812 0.5 13.0625 0.5 C 9.976562 0.5 7.578125 -0.394531 5.859375 -2.1875 C 4.148438 -3.976562 3.296875 -6.507812 3.296875 -9.78125 L 3.296875 -28.046875 L 12.96875 -28.046875 L 12.96875 -12.71875 C 12.96875 -10.882812 13.226562 -9.5 13.75 -8.5625 C 14.269531 -7.625 15.125 -7.15625 16.3125 -7.15625 C 17.976562 -7.15625 19.164062 -7.8125 19.875 -9.125 C 20.582031 -10.4375 20.9375 -12.648438 20.9375 -15.765625 L 20.9375 -28.046875 L 30.609375 -28.046875 L 30.609375 0 Z M 23.3125 0 "/></g></g></g><g fill="#ff00ff" fill-opacity="1"><g transform="translate(222.255225, 48.961095)"><g><path d="M 16.875 0.5 C 12.207031 0.5 8.582031 -0.738281 6 -3.21875 C 3.414062 -5.707031 2.125 -9.242188 2.125 -13.828125 C 2.125 -18.566406 3.320312 -22.203125 5.71875 -24.734375 C 8.113281 -27.265625 11.53125 -28.53125 15.96875 -28.53125 C 20.1875 -28.53125 23.445312 -27.425781 25.75 -25.21875 C 28.050781 -23.019531 29.203125 -19.851562 29.203125 -15.71875 L 29.203125 -11.40625 L 11.90625 -11.40625 C 11.96875 -9.84375 12.539062 -8.613281 13.625 -7.71875 C 14.707031 -6.832031 16.179688 -6.390625 18.046875 -6.390625 C 19.742188 -6.390625 21.304688 -6.546875 22.734375 -6.859375 C 24.160156 -7.179688 25.707031 -7.734375 27.375 -8.515625 L 27.375 -1.5625 C 25.851562 -0.78125 24.285156 -0.242188 22.671875 0.046875 C 21.054688 0.347656 19.125 0.5 16.875 0.5 Z M 16.3125 -21.953125 C 15.175781 -21.953125 14.222656 -21.59375 13.453125 -20.875 C 12.679688 -20.15625 12.234375 -19.03125 12.109375 -17.5 L 20.421875 -17.5 C 20.390625 -18.851562 20.003906 -19.929688 19.265625 -20.734375 C 18.535156 -21.546875 17.550781 -21.953125 16.3125 -21.953125 Z M 16.3125 -21.953125 "/></g></g></g><g fill="#ff00ff" fill-opacity="1"><g transform="translate(253.586865, 48.961095)"><g><path d="M 10.6875 0 L 0 -28.046875 L 10.09375 -28.046875 L 14.84375 -11.453125 C 14.863281 -11.367188 14.894531 -11.226562 14.9375 -11.03125 C 14.988281 -10.832031 15.039062 -10.597656 15.09375 -10.328125 C 15.144531 -10.054688 15.191406 -9.769531 15.234375 -9.46875 C 15.273438 -9.164062 15.296875 -8.878906 15.296875 -8.609375 L 15.46875 -8.609375 C 15.46875 -9.472656 15.617188 -10.40625 15.921875 -11.40625 L 20.890625 -28.046875 L 30.96875 -28.046875 L 20.265625 0 Z M 10.6875 0 "/></g></g></g><g fill="#00ffff" fill-opacity="1"><g transform="translate(152.444175, 48.961095)"><g><path d="M 21.03125 0 L 21.03125 -15.296875 C 21.03125 -17.160156 20.757812 -18.566406 20.21875 -19.515625 C 19.6875 -20.460938 18.828125 -20.9375 17.640625 -20.9375 C 16.015625 -20.9375 14.835938 -20.285156 14.109375 -18.984375 C 13.378906 -17.679688 13.015625 -15.445312 13.015625 -12.28125 L 13.015625 0 L 3.34375 0 L 3.34375 -28.046875 L 10.640625 -28.046875 L 11.859375 -24.578125 L 12.421875 -24.578125 C 13.242188 -25.898438 14.382812 -26.890625 15.84375 -27.546875 C 17.3125 -28.203125 18.992188 -28.53125 20.890625 -28.53125 C 23.992188 -28.53125 26.40625 -27.628906 28.125 -25.828125 C 29.851562 -24.035156 30.71875 -21.503906 30.71875 -18.234375 L 30.71875 0 Z M 21.03125 0 "/></g></g></g><g fill="#00ffff" fill-opacity="1"><g transform="translate(186.39916, 48.961095)"><g><path d="M 23.3125 0 L 22.09375 -3.484375 L 21.53125 -3.484375 C 20.71875 -2.203125 19.585938 -1.21875 18.140625 -0.53125 C 16.703125 0.15625 15.007812 0.5 13.0625 0.5 C 9.976562 0.5 7.578125 -0.394531 5.859375 -2.1875 C 4.148438 -3.976562 3.296875 -6.507812 3.296875 -9.78125 L 3.296875 -28.046875 L 12.96875 -28.046875 L 12.96875 -12.71875 C 12.96875 -10.882812 13.226562 -9.5 13.75 -8.5625 C 14.269531 -7.625 15.125 -7.15625 16.3125 -7.15625 C 17.976562 -7.15625 19.164062 -7.8125 19.875 -9.125 C 20.582031 -10.4375 20.9375 -12.648438 20.9375 -15.765625 L 20.9375 -28.046875 L 30.609375 -28.046875 L 30.609375 0 Z M 23.3125 0 "/></g></g></g><g fill="#00ffff" fill-opacity="1"><g transform="translate(220.354145, 48.961095)"><g><path d="M 16.875 0.5 C 12.207031 0.5 8.582031 -0.738281 6 -3.21875 C 3.414062 -5.707031 2.125 -9.242188 2.125 -13.828125 C 2.125 -18.566406 3.320312 -22.203125 5.71875 -24.734375 C 8.113281 -27.265625 11.53125 -28.53125 15.96875 -28.53125 C 20.1875 -28.53125 23.445312 -27.425781 25.75 -25.21875 C 28.050781 -23.019531 29.203125 -19.851562 29.203125 -15.71875 L 29.203125 -11.40625 L 11.90625 -11.40625 C 11.96875 -9.84375 12.539062 -8.613281 13.625 -7.71875 C 14.707031 -6.832031 16.179688 -6.390625 18.046875 -6.390625 C 19.742188 -6.390625 21.304688 -6.546875 22.734375 -6.859375 C 24.160156 -7.179688 25.707031 -7.734375 27.375 -8.515625 L 27.375 -1.5625 C 25.851562 -0.78125 24.285156 -0.242188 22.671875 0.046875 C 21.054688 0.347656 19.125 0.5 16.875 0.5 Z M 16.3125 -21.953125 C 15.175781 -21.953125 14.222656 -21.59375 13.453125 -20.875 C 12.679688 -20.15625 12.234375 -19.03125 12.109375 -17.5 L 20.421875 -17.5 C 20.390625 -18.851562 20.003906 -19.929688 19.265625 -20.734375 C 18.535156 -21.546875 17.550781 -21.953125 16.3125 -21.953125 Z M 16.3125 -21.953125 "/></g></g></g><g fill="#00ffff" fill-opacity="1"><g transform="translate(251.685786, 48.961095)"><g><path d="M 10.6875 0 L 0 -28.046875 L 10.09375 -28.046875 L 14.84375 -11.453125 C 14.863281 -11.367188 14.894531 -11.226562 14.9375 -11.03125 C 14.988281 -10.832031 15.039062 -10.597656 15.09375 -10.328125 C 15.144531 -10.054688 15.191406 -9.769531 15.234375 -9.46875 C 15.273438 -9.164062 15.296875 -8.878906 15.296875 -8.609375 L 15.46875 -8.609375 C 15.46875 -9.472656 15.617188 -10.40625 15.921875 -11.40625 L 20.890625 -28.046875 L 30.96875 -28.046875 L 20.265625 0 Z M 10.6875 0 "/></g></g></g><g fill="#7ed957" fill-opacity="1"><g transform="translate(153.394715, 48.961095)"><g><path d="M 21.03125 0 L 21.03125 -15.296875 C 21.03125 -17.160156 20.757812 -18.566406 20.21875 -19.515625 C 19.6875 -20.460938 18.828125 -20.9375 17.640625 -20.9375 C 16.015625 -20.9375 14.835938 -20.285156 14.109375 -18.984375 C 13.378906 -17.679688 13.015625 -15.445312 13.015625 -12.28125 L 13.015625 0 L 3.34375 0 L 3.34375 -28.046875 L 10.640625 -28.046875 L 11.859375 -24.578125 L 12.421875 -24.578125 C 13.242188 -25.898438 14.382812 -26.890625 15.84375 -27.546875 C 17.3125 -28.203125 18.992188 -28.53125 20.890625 -28.53125 C 23.992188 -28.53125 26.40625 -27.628906 28.125 -25.828125 C 29.851562 -24.035156 30.71875 -21.503906 30.71875 -18.234375 L 30.71875 0 Z M 21.03125 0 "/></g></g></g><g fill="#7ed957" fill-opacity="1"><g transform="translate(187.3497, 48.961095)"><g><path d="M 23.3125 0 L 22.09375 -3.484375 L 21.53125 -3.484375 C 20.71875 -2.203125 19.585938 -1.21875 18.140625 -0.53125 C 16.703125 0.15625 15.007812 0.5 13.0625 0.5 C 9.976562 0.5 7.578125 -0.394531 5.859375 -2.1875 C 4.148438 -3.976562 3.296875 -6.507812 3.296875 -9.78125 L 3.296875 -28.046875 L 12.96875 -28.046875 L 12.96875 -12.71875 C 12.96875 -10.882812 13.226562 -9.5 13.75 -8.5625 C 14.269531 -7.625 15.125 -7.15625 16.3125 -7.15625 C 17.976562 -7.15625 19.164062 -7.8125 19.875 -9.125 C 20.582031 -10.4375 20.9375 -12.648438 20.9375 -15.765625 L 20.9375 -28.046875 L 30.609375 -28.046875 L 30.609375 0 Z M 23.3125 0 "/></g></g></g><g fill="#7ed957" fill-opacity="1"><g transform="translate(221.304685, 48.961095)"><g><path d="M 16.875 0.5 C 12.207031 0.5 8.582031 -0.738281 6 -3.21875 C 3.414062 -5.707031 2.125 -9.242188 2.125 -13.828125 C 2.125 -18.566406 3.320312 -22.203125 5.71875 -24.734375 C 8.113281 -27.265625 11.53125 -28.53125 15.96875 -28.53125 C 20.1875 -28.53125 23.445312 -27.425781 25.75 -25.21875 C 28.050781 -23.019531 29.203125 -19.851562 29.203125 -15.71875 L 29.203125 -11.40625 L 11.90625 -11.40625 C 11.96875 -9.84375 12.539062 -8.613281 13.625 -7.71875 C 14.707031 -6.832031 16.179688 -6.390625 18.046875 -6.390625 C 19.742188 -6.390625 21.304688 -6.546875 22.734375 -6.859375 C 24.160156 -7.179688 25.707031 -7.734375 27.375 -8.515625 L 27.375 -1.5625 C 25.851562 -0.78125 24.285156 -0.242188 22.671875 0.046875 C 21.054688 0.347656 19.125 0.5 16.875 0.5 Z M 16.3125 -21.953125 C 15.175781 -21.953125 14.222656 -21.59375 13.453125 -20.875 C 12.679688 -20.15625 12.234375 -19.03125 12.109375 -17.5 L 20.421875 -17.5 C 20.390625 -18.851562 20.003906 -19.929688 19.265625 -20.734375 C 18.535156 -21.546875 17.550781 -21.953125 16.3125 -21.953125 Z M 16.3125 -21.953125 "/></g></g></g><g fill="#7ed957" fill-opacity="1"><g transform="translate(252.636326, 48.961095)"><g><path d="M 10.6875 0 L 0 -28.046875 L 10.09375 -28.046875 L 14.84375 -11.453125 C 14.863281 -11.367188 14.894531 -11.226562 14.9375 -11.03125 C 14.988281 -10.832031 15.039062 -10.597656 15.09375 -10.328125 C 15.144531 -10.054688 15.191406 -9.769531 15.234375 -9.46875 C 15.273438 -9.164062 15.296875 -8.878906 15.296875 -8.609375 L 15.46875 -8.609375 C 15.46875 -9.472656 15.617188 -10.40625 15.921875 -11.40625 L 20.890625 -28.046875 L 30.96875 -28.046875 L 20.265625 0 Z M 10.6875 0 "/></g></g></g><g fill="#ff00ff" fill-opacity="1"><g transform="translate(284.544092, 48.961095)"><g><path d="M 21.625 0 L 19.78125 -3.71875 L 19.578125 -3.71875 C 18.273438 -2.09375 16.945312 -0.984375 15.59375 -0.390625 C 14.238281 0.203125 12.488281 0.5 10.34375 0.5 C 7.707031 0.5 5.628906 -0.289062 4.109375 -1.875 C 2.585938 -3.457031 1.828125 -5.6875 1.828125 -8.5625 C 1.828125 -11.550781 2.863281 -13.773438 4.9375 -15.234375 C 7.019531 -16.691406 10.035156 -17.515625 13.984375 -17.703125 L 18.65625 -17.84375 L 18.65625 -18.234375 C 18.65625 -20.546875 17.519531 -21.703125 15.25 -21.703125 C 13.195312 -21.703125 10.597656 -21.007812 7.453125 -19.625 L 4.65625 -26.015625 C 7.914062 -27.691406 12.039062 -28.53125 17.03125 -28.53125 C 20.625 -28.53125 23.40625 -27.640625 25.375 -25.859375 C 27.351562 -24.078125 28.34375 -21.585938 28.34375 -18.390625 L 28.34375 0 Z M 14.453125 -6.34375 C 15.628906 -6.34375 16.628906 -6.710938 17.453125 -7.453125 C 18.285156 -8.191406 18.703125 -9.15625 18.703125 -10.34375 L 18.703125 -12.515625 L 16.484375 -12.421875 C 13.296875 -12.304688 11.703125 -11.132812 11.703125 -8.90625 C 11.703125 -7.195312 12.617188 -6.34375 14.453125 -6.34375 Z M 14.453125 -6.34375 "/></g></g></g><g fill="#ff00ff" fill-opacity="1"><g transform="translate(316.123218, 48.961095)"><g><path d="M 22.296875 -36.703125 L 8.8125 0.5 L 0.25 0.5 L 13.734375 -36.703125 Z M 22.296875 -36.703125 "/></g></g></g><g fill="#ff00ff" fill-opacity="1"><g transform="translate(338.520639, 48.961095)"><g><path d="M 1.78125 -11.703125 L 17.125 -17.9375 L 1.78125 -24.953125 L 1.78125 -32.296875 L 26.796875 -19.78125 L 26.796875 -15.515625 L 1.78125 -4.40625 Z M 1.78125 -11.703125 "/></g></g></g><g fill="#00ffff" fill-opacity="1"><g transform="translate(282.643013, 48.961095)"><g><path d="M 21.625 0 L 19.78125 -3.71875 L 19.578125 -3.71875 C 18.273438 -2.09375 16.945312 -0.984375 15.59375 -0.390625 C 14.238281 0.203125 12.488281 0.5 10.34375 0.5 C 7.707031 0.5 5.628906 -0.289062 4.109375 -1.875 C 2.585938 -3.457031 1.828125 -5.6875 1.828125 -8.5625 C 1.828125 -11.550781 2.863281 -13.773438 4.9375 -15.234375 C 7.019531 -16.691406 10.035156 -17.515625 13.984375 -17.703125 L 18.65625 -17.84375 L 18.65625 -18.234375 C 18.65625 -20.546875 17.519531 -21.703125 15.25 -21.703125 C 13.195312 -21.703125 10.597656 -21.007812 7.453125 -19.625 L 4.65625 -26.015625 C 7.914062 -27.691406 12.039062 -28.53125 17.03125 -28.53125 C 20.625 -28.53125 23.40625 -27.640625 25.375 -25.859375 C 27.351562 -24.078125 28.34375 -21.585938 28.34375 -18.390625 L 28.34375 0 Z M 14.453125 -6.34375 C 15.628906 -6.34375 16.628906 -6.710938 17.453125 -7.453125 C 18.285156 -8.191406 18.703125 -9.15625 18.703125 -10.34375 L 18.703125 -12.515625 L 16.484375 -12.421875 C 13.296875 -12.304688 11.703125 -11.132812 11.703125 -8.90625 C 11.703125 -7.195312 12.617188 -6.34375 14.453125 -6.34375 Z M 14.453125 -6.34375 "/></g></g></g><g fill="#00ffff" fill-opacity="1"><g transform="translate(314.222139, 48.961095)"><g><path d="M 22.296875 -36.703125 L 8.8125 0.5 L 0.25 0.5 L 13.734375 -36.703125 Z M 22.296875 -36.703125 "/></g></g></g><g fill="#00ffff" fill-opacity="1"><g transform="translate(336.61956, 48.961095)"><g><path d="M 1.78125 -11.703125 L 17.125 -17.9375 L 1.78125 -24.953125 L 1.78125 -32.296875 L 26.796875 -19.78125 L 26.796875 -15.515625 L 1.78125 -4.40625 Z M 1.78125 -11.703125 "/></g></g></g><g fill="#38b6ff" fill-opacity="1"><g transform="translate(283.593553, 48.961095)"><g><path d="M 21.625 0 L 19.78125 -3.71875 L 19.578125 -3.71875 C 18.273438 -2.09375 16.945312 -0.984375 15.59375 -0.390625 C 14.238281 0.203125 12.488281 0.5 10.34375 0.5 C 7.707031 0.5 5.628906 -0.289062 4.109375 -1.875 C 2.585938 -3.457031 1.828125 -5.6875 1.828125 -8.5625 C 1.828125 -11.550781 2.863281 -13.773438 4.9375 -15.234375 C 7.019531 -16.691406 10.035156 -17.515625 13.984375 -17.703125 L 18.65625 -17.84375 L 18.65625 -18.234375 C 18.65625 -20.546875 17.519531 -21.703125 15.25 -21.703125 C 13.195312 -21.703125 10.597656 -21.007812 7.453125 -19.625 L 4.65625 -26.015625 C 7.914062 -27.691406 12.039062 -28.53125 17.03125 -28.53125 C 20.625 -28.53125 23.40625 -27.640625 25.375 -25.859375 C 27.351562 -24.078125 28.34375 -21.585938 28.34375 -18.390625 L 28.34375 0 Z M 14.453125 -6.34375 C 15.628906 -6.34375 16.628906 -6.710938 17.453125 -7.453125 C 18.285156 -8.191406 18.703125 -9.15625 18.703125 -10.34375 L 18.703125 -12.515625 L 16.484375 -12.421875 C 13.296875 -12.304688 11.703125 -11.132812 11.703125 -8.90625 C 11.703125 -7.195312 12.617188 -6.34375 14.453125 -6.34375 Z M 14.453125 -6.34375 "/></g></g></g><g fill="#38b6ff" fill-opacity="1"><g transform="translate(315.172678, 48.961095)"><g><path d="M 22.296875 -36.703125 L 8.8125 0.5 L 0.25 0.5 L 13.734375 -36.703125 Z M 22.296875 -36.703125 "/></g></g></g><g fill="#38b6ff" fill-opacity="1"><g transform="translate(337.570099, 48.961095)"><g><path d="M 1.78125 -11.703125 L 17.125 -17.9375 L 1.78125 -24.953125 L 1.78125 -32.296875 L 26.796875 -19.78125 L 26.796875 -15.515625 L 1.78125 -4.40625 Z M 1.78125 -11.703125 "/></g></g></g></svg>